<svg width="27" height="10" viewBox="0 0 27 10" fill="none" xmlns="http://www.w3.org/2000/svg">
<path d="M3.82812 4.8252H3.93066C4.10384 4.8252 4.2679 4.79557 4.42285 4.73633C4.5778 4.67708 4.75553 4.56771 4.95605 4.4082C5.16113 4.24414 5.49382 3.93424 5.9541 3.47852C6.3597 3.07747 6.6582 2.75846 6.84961 2.52148C7.04557 2.28451 7.17773 2.08171 7.24609 1.91309C7.29622 1.79004 7.32129 1.67611 7.32129 1.57129C7.32129 1.41178 7.28483 1.30241 7.21191 1.24316C7.139 1.17936 7.01823 1.13835 6.84961 1.12012L6.95215 0.668945H10.2881L10.1855 1.13379C10.0352 1.16569 9.90299 1.20898 9.78906 1.26367C9.67513 1.31836 9.53158 1.41634 9.3584 1.55762C9.18978 1.69889 8.93685 1.93132 8.59961 2.25488L6.125 4.62695L7.56738 8.18164C7.68587 8.46875 7.78841 8.69661 7.875 8.86523C7.96159 9.0293 8.0459 9.15918 8.12793 9.25488C8.20996 9.34603 8.29427 9.41439 8.38086 9.45996C8.46745 9.50098 8.56315 9.53288 8.66797 9.55566L8.5791 10H5.16113L5.26367 9.54883C5.38672 9.53516 5.47331 9.50326 5.52344 9.45312C5.57357 9.40299 5.59863 9.32096 5.59863 9.20703C5.59863 9.09766 5.57585 8.95866 5.53027 8.79004C5.4847 8.61686 5.38672 8.33659 5.23633 7.94922L4.61426 6.33594C4.52767 6.11263 4.44564 5.95085 4.36816 5.85059C4.29525 5.74577 4.21549 5.67285 4.12891 5.63184C4.04688 5.59082 3.92611 5.57031 3.7666 5.57031H3.66406L3.09668 8.1543C3.06934 8.27734 3.05111 8.37305 3.04199 8.44141C3.03288 8.50521 3.02376 8.57812 3.01465 8.66016C3.01009 8.73763 3.00781 8.83561 3.00781 8.9541C3.00781 9.14551 3.05111 9.28678 3.1377 9.37793C3.22884 9.46452 3.37467 9.52148 3.5752 9.54883L3.47949 10H0.0410156L0.136719 9.54883C0.328125 9.49414 0.473958 9.41895 0.574219 9.32324C0.679036 9.22754 0.767904 9.0931 0.84082 8.91992C0.913737 8.74219 0.986654 8.48698 1.05957 8.1543L2.30371 2.51465C2.36296 2.24577 2.39258 1.97917 2.39258 1.71484C2.39258 1.52344 2.34701 1.38444 2.25586 1.29785C2.16927 1.20671 2.02572 1.14746 1.8252 1.12012L1.9209 0.668945H5.35938L5.26367 1.12012C5.07227 1.1748 4.92415 1.25 4.81934 1.3457C4.71908 1.44141 4.63249 1.57812 4.55957 1.75586C4.48665 1.92904 4.41374 2.18197 4.34082 2.51465L3.82812 4.8252ZM9.42484 10L9.52055 9.54883C9.71195 9.49414 9.85779 9.41895 9.95805 9.32324C10.0629 9.22754 10.1517 9.0931 10.2246 8.91992C10.2976 8.74219 10.3705 8.48698 10.4434 8.1543L11.6875 2.51465C11.7468 2.24577 11.7764 1.97917 11.7764 1.71484C11.7764 1.52344 11.7308 1.38444 11.6397 1.29785C11.5531 1.20671 11.4095 1.14746 11.209 1.12012L11.3047 0.668945H14.0733C14.725 0.668945 15.2559 0.698568 15.6661 0.757812C16.0762 0.817057 16.4362 0.91276 16.7461 1.04492C16.9467 1.13607 17.1631 1.25684 17.3955 1.40723C17.628 1.55762 17.8376 1.7627 18.0245 2.02246C18.2159 2.28223 18.3617 2.59212 18.462 2.95215C18.5622 3.31217 18.6123 3.71322 18.6123 4.15527C18.6123 4.76139 18.544 5.34245 18.4073 5.89844C18.2705 6.45443 18.0677 6.9694 17.7989 7.44336C17.5345 7.91276 17.2155 8.31836 16.8418 8.66016C16.4727 8.9974 16.1013 9.26172 15.7276 9.45312C15.3539 9.63997 14.9323 9.77897 14.4629 9.87012C13.9935 9.95671 13.4375 10 12.795 10H9.42484ZM12.2549 9.16602C12.4646 9.18424 12.6332 9.19336 12.7608 9.19336C13.3487 9.19336 13.8545 9.07715 14.2784 8.84473C14.7067 8.6123 15.085 8.25911 15.4131 7.78516C15.7458 7.30664 16.0056 6.72559 16.1924 6.04199C16.3838 5.35384 16.4795 4.66341 16.4795 3.9707C16.4795 3.5013 16.4271 3.1071 16.3223 2.78809C16.2175 2.46908 16.0717 2.21159 15.8848 2.01562C15.7025 1.81966 15.4883 1.68066 15.2422 1.59863C15.0007 1.51204 14.7432 1.46875 14.4698 1.46875C14.2419 1.46875 14.0664 1.47331 13.9434 1.48242L12.2549 9.16602ZM23.252 9.18652C23.4753 9.18652 23.6485 9.16829 23.7716 9.13184C23.8946 9.09538 24.0063 9.03841 24.1065 8.96094C24.2068 8.88346 24.3162 8.77637 24.4346 8.63965C24.5577 8.50293 24.6785 8.3252 24.797 8.10645C24.9154 7.8877 25.0362 7.61426 25.1593 7.28613H26.0889L25.3917 10H19.1368L19.2325 9.54883C19.4239 9.49414 19.5697 9.41895 19.67 9.32324C19.7748 9.22754 19.8637 9.0931 19.9366 8.91992C20.0095 8.74219 20.0824 8.48698 20.1554 8.1543L21.3995 2.51465C21.4587 2.24577 21.4884 1.97917 21.4884 1.71484C21.4884 1.52344 21.4428 1.38444 21.3516 1.29785C21.2651 1.20671 21.1215 1.14746 20.921 1.12012L21.0167 0.668945H24.4552L24.3595 1.12012C24.168 1.1748 24.0199 1.25 23.9151 1.3457C23.8149 1.44141 23.7283 1.57812 23.6554 1.75586C23.5824 1.92904 23.5095 2.18197 23.4366 2.51465L21.96 9.18652H23.252Z" fill="#750CFF"/>
</svg>
