<svg width="21" height="14" viewBox="0 0 21 14" fill="none" xmlns="http://www.w3.org/2000/svg">
<path d="M14.8125 7C16.135 7 17.1988 5.88 17.1988 4.5C17.1988 3.12 16.135 2 14.8125 2C13.49 2 12.4167 3.12 12.4167 4.5C12.4167 5.88 13.49 7 14.8125 7ZM7.62502 6C9.21585 6 10.4904 4.66 10.4904 3C10.4904 1.34 9.21585 0 7.62502 0C6.03419 0 4.75002 1.34 4.75002 3C4.75002 4.66 6.03419 6 7.62502 6ZM14.8125 9C13.0588 9 9.54169 9.92 9.54169 11.75V13C9.54169 13.55 9.97294 14 10.5 14H19.125C19.6521 14 20.0834 13.55 20.0834 13V11.75C20.0834 9.92 16.5663 9 14.8125 9ZM7.62502 8C5.3921 8 0.916687 9.17 0.916687 11.5V13C0.916687 13.55 1.34794 14 1.87502 14H7.62502V11.75C7.62502 10.9 7.94127 9.41 9.89627 8.28C9.06252 8.1 8.25752 8 7.62502 8Z" fill="white"/>
</svg>
