<svg width="25" height="25" viewBox="0 0 25 25" fill="none" xmlns="http://www.w3.org/2000/svg">
<path d="M17.1042 12.2917C18.5417 12.2917 19.6979 11.125 19.6979 9.6875C19.6979 8.25 18.5417 7.08333 17.1042 7.08333C15.6667 7.08333 14.5 8.25 14.5 9.6875C14.5 11.125 15.6667 12.2917 17.1042 12.2917ZM9.29167 11.25C11.0208 11.25 12.4062 9.85417 12.4062 8.125C12.4062 6.39583 11.0208 5 9.29167 5C7.5625 5 6.16667 6.39583 6.16667 8.125C6.16667 9.85417 7.5625 11.25 9.29167 11.25ZM17.1042 14.375C15.1979 14.375 11.375 15.3333 11.375 17.2396V18.5417C11.375 19.1146 11.8437 19.5833 12.4167 19.5833H21.7917C22.3646 19.5833 22.8333 19.1146 22.8333 18.5417V17.2396C22.8333 15.3333 19.0104 14.375 17.1042 14.375ZM9.29167 13.3333C6.86458 13.3333 2 14.5521 2 16.9792V18.5417C2 19.1146 2.46875 19.5833 3.04167 19.5833H9.29167V17.2396C9.29167 16.3542 9.63542 14.8021 11.7604 13.625C10.8542 13.4375 9.97917 13.3333 9.29167 13.3333Z" fill="#348BEE"/>
</svg>
